Coordinates
version=1
nRows=13
nColumns=36
inDegrees=yes

Units are S.I. units (second, meters, Newtons, ...)
If the header above contains a line with 'inDegrees', this indicates whether rotational values are in degrees (yes) or radians (no).

endheader
time	pelvis_tilt	pelvis_list	pelvis_rotation	pelvis_tx	pelvis_ty	pelvis_tz	hip_flexion_r	hip_adduction_r	hip_rotation_r	knee_angle_r	knee_angle_r_beta	ankle_angle_r	subtalar_angle_r	mtp_angle_r	hip_flexion_l	hip_adduction_l	hip_rotation_l	knee_angle_l	knee_angle_l_beta	ankle_angle_l	subtalar_angle_l	mtp_angle_l	lumbar_extension	lumbar_bending	lumbar_rotation	arm_flex_r	arm_add_r	arm_rot_r	elbow_flex_r	pro_sup_r	arm_flex_l	arm_add_l	arm_rot_l	elbow_flex_l	pro_sup_l
      1.93333330	     22.95125228	      0.74090100	     23.97497239	      0.95244168	      1.08892307	     -0.24752497	     24.67851039	    -14.43940031	     -1.90204438	     19.71589587	      0.34410730	    -14.55107576	     -3.50666741	     -7.49999235	    -15.76114412	     -5.11076819	     -7.27026043	     17.11786227	      0.29876306	      8.56490313	    -21.64719105	     -7.49999235	    -26.06534608	    -12.85400510	     -2.91140486	     53.09888088	     12.37662058	     40.05279650	    105.87072443	     94.01670289	     45.18530341	    -10.22637512	     43.37106333	    110.19630322	     96.69306177
      1.95000000	     22.94964236	      0.26337190	     24.19275566	      0.95847867	      1.08398396	     -0.24518446	     24.31582441	    -14.13580256	     -2.26331338	     19.09716993	      0.33330849	    -14.86224220	     -3.30687233	     -7.49999327	    -15.92207220	     -5.82728836	     -7.21616105	     16.88120299	      0.29463257	      9.00919929	    -21.25077020	     -7.49999327	    -25.16982345	    -12.45038873	     -2.71051444	     52.76996050	     12.59523662	     39.71530891	    105.47182542	     93.30166814	     45.33373265	    -10.16917517	     43.10321785	    109.49483841	     96.29645279
      1.96666670	     22.88779646	     -0.15376253	     24.53632117	      0.95788028	      1.08299360	     -0.24573900	     24.14757401	    -13.93292556	     -2.59385298	     18.79439773	      0.32802412	    -15.08647042	     -3.14962930	     -7.49999370	    -15.87459946	     -6.49067290	     -7.08141058	     16.73795485	      0.29213242	      9.01548400	    -21.16388145	     -7.49999370	    -24.37244711	    -12.00522319	     -2.59032207	     52.57544338	     12.75335472	     39.39675562	    105.00136083	     92.42304181	     45.45610161	    -10.15263349	     42.90545394	    108.98744458	     95.61361796
      1.98333330	     22.71555387	     -0.84141090	     24.99456864	      0.96461581	      1.07773825	     -0.24926204	     24.12590087	    -13.56597652	     -2.96760971	     18.77332859	      0.32765640	    -14.84600722	     -3.20230804	     -7.49999466	    -15.66238685	     -7.42794196	     -6.89694665	     16.67257789	      0.29099138	      9.68152486	    -20.74763572	     -7.49999466	    -23.10917785	    -11.34259394	     -2.68627023	     52.12665995	     12.77633142	     39.22954595	    104.33123007	     93.64162383	     44.99701142	     -9.97525325	     42.56799548	    108.64971711	     98.49523396
      2.00000000	     22.60293592	     -1.07180105	     25.69716864	      0.95714938	      1.07863338	     -0.24726210	     23.75286670	    -13.59743629	     -3.65858987	     18.53688679	      0.32352971	    -14.70771719	     -2.81785855	     -7.49999625	    -15.41169716	     -7.96317992	     -6.63203609	     16.63012217	      0.29025039	     10.01907663	    -20.22874099	     -7.49999625	    -22.45709344	    -10.87167097	     -3.00443287	     51.99089661	     12.92729423	     39.23433686	    103.67473974	     93.87175998	     44.89485186	    -10.11403432	     42.41624759	    108.48263071	     99.58501730
      2.01666670	     22.46830838	     -1.37754010	     26.25670748	      0.96370517	      1.07395710	     -0.24528812	     23.37811469	    -13.40928156	     -4.19313551	     18.30439430	      0.31947195	    -14.29721562	     -2.67107181	     -7.49999648	    -15.20402742	     -8.55569267	     -6.36739077	     16.57288356	      0.28925138	     10.64815482	    -19.85626516	     -7.49999648	    -21.71491513	    -10.47654502	     -3.33856573	     51.84746160	     13.06776407	     39.46850968	    103.32807401	     92.11165774	     44.91432427	    -10.25585907	     42.67166791	    108.18663218	     98.00180427
      2.03333330	     22.40161967	     -1.34363407	     26.40411230	      0.96273496	      1.07826683	     -0.25022070	     23.09956937	    -13.35472006	     -4.20650796	     18.40994994	      0.32131424	    -14.25005732	     -2.71652280	     -7.49999648	    -15.22115175	     -8.63269112	     -6.36530394	     16.57843135	      0.28934821	     10.68547763	    -19.87900270	     -7.49999648	    -21.50160740	    -10.49942757	     -3.28905835	     51.82930473	     13.10474028	     39.49956599	    103.34014590	     92.11676808	     44.86591384	    -10.25828736	     42.69295799	    108.20328097	     98.01191725
      2.05000000	     22.60803982	     -1.68386257	     27.00938163	      0.95703455	      1.07028786	     -0.24918901	     22.69434594	    -13.01618450	     -5.09472100	     18.91214876	      0.33007926	    -13.73775034	     -3.48685335	     -7.49999712	    -14.77928851	     -9.23494993	     -5.94490082	     17.23934509	      0.30088333	     11.52442100	    -19.80316765	     -7.49999712	    -21.32535388	     -9.70959563	     -4.13393675	     51.87909537	     13.25402576	     39.91382918	    102.93403816	     92.94578133	     44.61213028	    -10.44695204	     42.60142924	    107.98581635	    100.91755634
      2.06666670	     22.85767725	     -1.97501435	     27.00757128	      0.96322469	      1.07055441	     -0.25212379	     22.42340360	    -12.37501917	     -5.58448883	     19.59918381	      0.34207029	    -13.15086477	     -3.87811904	     -7.49999719	    -14.93171980	     -9.62251120	     -5.96568382	     17.36468609	      0.30307095	     12.64361204	    -19.39676987	     -7.49999719	    -21.20759499	     -9.23246413	     -4.42239754	     52.07778199	     13.37217139	     40.25520734	    103.50675902	     92.79305436	     44.67557223	    -10.52237461	     42.76215801	    108.03610560	    100.98584194
      2.08333330	     22.98158542	     -2.29352484	     26.93152531	      0.96315395	      1.07046094	     -0.25240694	     22.19744845	    -11.65456586	     -5.96420799	     20.17185077	      0.35206521	    -12.53149929	     -4.27330684	     -7.49999722	    -15.06587210	     -9.95941569	     -5.91900356	     17.34389749	      0.30270812	     13.23048751	    -19.19382653	     -7.49999722	    -20.92413779	     -8.75871359	     -4.56241367	     52.13719616	     13.74363396	     40.45680344	    103.76643866	     92.72261719	     44.66758453	    -10.55464868	     42.80715572	    108.14536332	    101.00223290
      2.10000000	     23.06725553	     -2.27039183	     26.83671135	      0.95659947	      1.06760727	     -0.25494304	     22.05158461	    -11.35696249	     -6.27563932	     20.59678708	      0.35948175	    -12.29689677	     -4.49267653	     -7.49999731	    -15.02702015	     -9.91070639	     -5.95476270	     17.64120221	      0.30789706	     13.81914139	    -18.63552916	     -7.49999731	    -21.07552703	     -8.43240784	     -4.80902493	     52.73785426	     13.93008683	     40.94880274	    104.44235437	     92.42822028	     44.51818205	    -10.68428561	     42.85244963	    108.43381124	    100.97759230
      2.11666670	     23.04284436	     -2.32834433	     26.74793176	      0.95822042	      1.06749606	     -0.25527043	     21.87713266	    -10.88515125	     -6.64974505	     20.96456266	      0.36590064	    -11.92558325	     -4.59943784	     -7.49999754	    -14.99892651	     -9.84236506	     -5.91751835	     17.65502223	      0.30813827	     13.96989362	    -18.52916636	     -7.49999754	    -20.90384569	     -8.13230988	     -5.13945620	     53.11227794	     14.09603374	     41.14645758	    104.72840551	     91.12404557	     44.58190590	    -10.58911125	     42.79368344	    108.37381911	     99.84504111
      2.13333330	     22.95666874	     -2.25119906	     26.69499425	      0.95180938	      1.07170067	     -0.25763919	     21.49368994	    -10.52953683	     -6.84908351	     20.75755727	      0.36228772	    -11.60731412	     -4.68112968	     -7.49999810	    -14.95858768	     -9.58517626	     -5.70917201	     17.74358980	      0.30968406	     14.00685346	    -18.21453743	     -7.49999810	    -21.04607932	     -7.58154435	     -5.59688828	     53.83656066	     14.37768296	     42.03220683	    104.47621512	     89.53683059	     44.49765521	    -10.60464441	     42.00198434	    108.76072115	     98.62989768
